<mxfile host="app.diagrams.net" modified="2023-10-18T16:40:24.000Z" agent="Mozilla/5.0 (Macintosh; Intel Mac OS X 10_15_7) AppleWebKit/537.36 (KHTML, like Gecko) Chrome/118.0.0.0 Safari/537.36" etag="WJAAcoaT9L__TC3HQlAC" version="22.0.4" type="device">
  <diagram name="Page-1" id="uEHsPccwYDxXQezhVAvB">
    <mxGraphModel dx="954" dy="620" grid="1" gridSize="10" guides="1" tooltips="1" connect="1" arrows="1" fold="1" page="1" pageScale="1" pageWidth="827" pageHeight="1169" math="0" shadow="0">
      <root>
        <mxCell id="0" />
        <mxCell id="1" parent="0" />
        <mxCell id="sVRV8ydl0Pa446DgSfbg-1" value="Main DB&lt;br&gt;Postgres" style="image;aspect=fixed;perimeter=ellipsePerimeter;html=1;align=center;shadow=0;dashed=0;spacingTop=3;image=img/lib/active_directory/databases.svg;" parent="1" vertex="1">
          <mxGeometry x="110" y="106.53" width="50" height="49" as="geometry" />
        </mxCell>
        <mxCell id="sVRV8ydl0Pa446DgSfbg-2" value="Warehouse&lt;br&gt;Clickhouse" style="image;aspect=fixed;html=1;points=[];align=center;fontSize=12;image=img/lib/azure2/integration/SQL_Data_Warehouses.svg;" parent="1" vertex="1">
          <mxGeometry x="460" y="97.07000000000001" width="64" height="65" as="geometry" />
        </mxCell>
        <mxCell id="sVRV8ydl0Pa446DgSfbg-4" value="Visualisation&#xa;Metabase" style="shape=image;verticalLabelPosition=bottom;labelBackgroundColor=default;verticalAlign=top;aspect=fixed;imageAspect=0;image=data:image/svg+xml,PHN2ZyB4bWxucz0iaHR0cDovL3d3dy53My5vcmcvMjAwMC9zdmciIHByZXNlcnZlQXNwZWN0UmF0aW89InhNaWRZTWlkIiB2aWV3Qm94PSIwIDAgMjU2IDMyMy42ODA5NjkyMzgyODEyNSIgaGVpZ2h0PSIyNDk3LjUzODM0Mjg4Nzk3MjciIHdpZHRoPSIxOTc0Ljk5OTk5OTk5OTk5OTgiPjxnIGZpbGw9IiM1MDlFRTMiPjxlbGxpcHNlIHJ5PSIxOS43MDQiIHJ4PSIxOS4zOTQiIGN5PSI4Mi43NTciIGN4PSIxOS4zOTQiLz48ZWxsaXBzZSByeT0iMTkuNzA0IiByeD0iMTkuMzk0IiBjeT0iMTM3LjkyOCIgY3g9IjE5LjM5NCIvPjxlbGxpcHNlIHJ5PSIxOS43MDQiIHJ4PSIxOS4zOTQiIGN5PSI4Mi43NTciIGN4PSI3My42OTciIG9wYWNpdHk9Ii4yIi8+PGVsbGlwc2Ugcnk9IjE5LjcwNCIgcng9IjE5LjM5NCIgY3k9IjEzOC40NjQiIGN4PSI3My42OTciLz48ZWxsaXBzZSByeT0iMTkuNzA0IiByeD0iMTkuMzk0IiBjeT0iODIuNzU3IiBjeD0iMTI4IiBvcGFjaXR5PSIuMiIvPjxlbGxpcHNlIHJ5PSIxOS43MDQiIHJ4PSIxOS4zOTQiIGN5PSIxOS43MDQiIGN4PSIxMjgiIG9wYWNpdHk9Ii4yIi8+PGVsbGlwc2Ugcnk9IjE5LjcwNCIgcng9IjE5LjM5NCIgY3k9IjEzOC40NjQiIGN4PSIxMjgiIG9wYWNpdHk9Ii4yIi8+PGVsbGlwc2Ugcnk9IjE5LjcwNCIgcng9IjE5LjM5NCIgY3k9IjgyLjc1NyIgY3g9IjE4Mi4zMDMiIG9wYWNpdHk9Ii4yIi8+PGVsbGlwc2Ugcnk9IjE5LjcwNCIgcng9IjE5LjM5NCIgY3k9IjgyLjc1NyIgY3g9IjIzNi42MDYiLz48ZWxsaXBzZSByeT0iMTkuNzA0IiByeD0iMTkuMzk0IiBjeT0iMTM4LjQ2NCIgY3g9IjE4Mi4zMDMiLz48ZWxsaXBzZSByeT0iMTkuNzA0IiByeD0iMTkuMzk0IiBjeT0iMTM4LjQ2NCIgY3g9IjIzNi42MDYiLz48ZWxsaXBzZSByeT0iMTkuNzA0IiByeD0iMTkuMzk0IiBjeT0iMTkzLjA5OSIgY3g9IjE5LjM5NCIvPjxlbGxpcHNlIHJ5PSIxOS43MDQiIHJ4PSIxOS4zOTQiIGN5PSIxOTMuNjM1IiBjeD0iNzMuNjk3IiBvcGFjaXR5PSIuMiIvPjxlbGxpcHNlIHJ5PSIxOS43MDQiIHJ4PSIxOS4zOTQiIGN5PSIxOTMuNjM1IiBjeD0iMTI4Ii8+PGVsbGlwc2Ugcnk9IjE5LjcwNCIgcng9IjE5LjM5NCIgY3k9IjE5My42MzUiIGN4PSIxODIuMzAzIiBvcGFjaXR5PSIuMiIvPjxlbGxpcHNlIHJ5PSIxOS43MDQiIHJ4PSIxOS4zOTQiIGN5PSIxOTMuNjM1IiBjeD0iMjM2LjYwNiIvPjxlbGxpcHNlIHJ5PSIxOS43MDQiIHJ4PSIxOS4zOTQiIGN5PSIyNDguMjciIGN4PSIxOS4zOTQiLz48ZWxsaXBzZSByeT0iMTkuNzA0IiByeD0iMTkuMzk0IiBjeT0iMjQ4LjgwNiIgY3g9IjczLjY5NyIgb3BhY2l0eT0iLjIiLz48ZWxsaXBzZSByeT0iMTkuNzA0IiByeD0iMTkuMzk0IiBjeT0iMjQ4LjgwNiIgY3g9IjEyOCIgb3BhY2l0eT0iLjIiLz48ZWxsaXBzZSByeT0iMTkuNzA0IiByeD0iMTkuMzk0IiBjeT0iMzAzLjk3NyIgY3g9IjEyOCIgb3BhY2l0eT0iLjIiLz48ZWxsaXBzZSByeT0iMTkuNzA0IiByeD0iMTkuMzk0IiBjeT0iMjQ4LjgwNiIgY3g9IjE4Mi4zMDMiIG9wYWNpdHk9Ii4yIi8+PGVsbGlwc2Ugcnk9IjE5LjcwNCIgcng9IjE5LjM5NCIgY3k9IjI0OC44MDYiIGN4PSIyMzYuNjA2Ii8+PC9nPjwvc3ZnPg==;" parent="1" vertex="1">
          <mxGeometry x="640" y="94.63" width="57.58" height="72.81" as="geometry" />
        </mxCell>
        <mxCell id="sVRV8ydl0Pa446DgSfbg-5" value="EL&#xa;Airbyte" style="shape=image;verticalLabelPosition=bottom;labelBackgroundColor=default;verticalAlign=top;aspect=fixed;imageAspect=0;image=data:image/png,iVBORw0KGgoAAAANSUhEUgAAASIAAAEsCAMAAABQak70AAADAFBMVEVHcExPWqZPWqZPWqZPWqZPWqZPWqZPWqZPWqZPWqZPWqZPWqZPWqZPWqZPWqZPWqZPWqZPWqZPWqZPWqZPWqZPWqZPWqZPWqZPWqZPWqZPWqZPWqZPWqZPWqZPWqZPWqZPWqZPWqZPWqZPWqZPWqZPWqZPWqZPWqZPWqZPWqZPWqZPWqZPWqZPWqZPWqZPWqZPWqZPWqZPWqZPWqZPWqZPWqZPWqZPWqZPWqZPWqZPWqZPWqZPWqZPWqZPWqZPWqZPWqZPWqZPWqZPWqZPWqZPWqZPWqZPWqZPWqZPWqZPWqZPWqZPWqZPWqZPWqZPWqZPWqZPWqZPWqZPWqZPWqZPWqZPWqZPWqZPWqZPWqZPWqZPWqZPWqZPWqZPWqZPWqZPWqZPWqZPWqZPWqZPWqZPWqZPWqZPWqZPWqZPWqZPWqZPWqZPWqZPWqZPWqZPWqZPWqZPWqZPWqZPWqZPWqZPWqZPWqZPWqZPWqZPWqZPWqZPWqZPWqZPWqZPWqZPWqZPWqZPWqZPWqZPWqZPWqZPWqZPWqZPWqZPWqZPWqZPWqZPWqZPWqZPWqZPWqZPWqZPWqZPWqZPWqZPWqZPWqZPWqZPWqZPWqZPWqZPWqZPWqZPWqZPWqZPWqZPWqZPWqZPWqZPWqZPWqZPWqZPWqZPWqZPWqZPWqZPWqZPWqZPWqZPWqZPWqZPWqZPWqZPWqZPWqZPWqZPWqZPWqZPWqZPWqZPWqZPWqZPWqZPWqZPWqZPWqZPWqZPWqZPWqZPWqZPWqZPWqZPWqZPWqZPWqZPWqZPWqZPWqZPWqZPWqZPWqZPWqZPWqZPWqZPWqZPWqZPWqZPWqZPWqZPWqZPWqZPWqZPWqZPWqZPWqZPWqZPWqZPWqZPWqZPWqZPWqZPWqZPWqZPWqZPWqZPWqZPWqZPWqZPWqZPWqZPWqZPWqZPWqZPWqZPWqZPWqZPWqZPWqZPWqZPWqZPWqZPWqZPWqZPWqZPWqZPWqZPWqZPWqZPWqZPWqZPWqZPWqZPWqZPWqb/aEchAAABAHRSTlMAAQoZLkZfeZKovMza5ezy9/j17+jf0sSynIVrUTghEAMFFzJTeLvT5vr+//z23Maph2I/IAsNK1Wx1e77/fTgwZdmORYqW5PF8dSmbxIUQoDn8JRUH0qQzqRdDkGM0N6gUihzwtGGNgdHnuPtr1dh+cpxHnLZgifXiBt2gyNodBgIT8Ax8zsC6UVQlcPNTgQP6q26NBEanawtOt3iZ+sG5Mm+1nuwWAkMTaKRfkgdYI6BFTBwy22KoRN9amw84UCzXMgpdbRD2D1lNataVscltbkmpSSZST6/Iix3n38zi2OqL5jbt2TPepu9o2lLlqdehEwcjXy2Wa43uIlEmo9uh3AoMQAAGMxJREFUeAHk0ONiHFEUAOAT27Yx9yxiz8a2bdu2bbMOauvp2v/l+s7me4QPOEBNXUNTS1tHV0/fwNDI2MTU7CdzC0sraxtbO3sHRydnF1e4v9zcPTy97Lx9fE0Ygr9DeHxjgdDPPyAwKBjunZDQMPvwiMgo/B+sKDomNi4+wRXuC/XEpOQUyygUD5ualp4Rn6kGqk4tKztHP5eHkiF5BvkFha6q/JNQVFwiIigVRlBa5qyiS+UVlVV8lIWo6ppad1A1rnX1DSYoO2aNTc0toEJCWtvaWZQt0tHZlQUqwr1bX4Ty0NPbF6QG3Nc/UMKgvLCDQ8NcTyrUGWFRnojVaB2Xk8bGxQ+SIGliEjgqc6qKh4pABqdngINm5+YZVBReb1IwcIzaQukiKpJp59IycEmWTjsq2or9GHCG6+o8DxWP7V1zA26Y8e9A5TBZLwQOWM7eYFFZyObWNtBuR2cXlcmiKQvolrjHoHLx9g+AYstzEah81WVuQKtgrw6kgYn/IdDp6LgH6cA7mQQaneoTpEbvGdCnwhppcu6oBnRRC7tAuuxebgNNtuOukDYmOrNAjwf1qSglHr/joWHjo4Z578cxws0nVismDEHpmPoHAy1anpqjxIip7+az4oHr7IXJo8zyYPXZG/Vbl4TCxPi7uInnMeepLEqMeVFOy9BLU5QMa2xQ0/dq+HAbfk8t+HX8m7f6Fz0omaj8ckqG+CgBImq0C1g4XIZ/upmc85+/Yrl75KYjwRDJ23hX8V4N/lvwB4dwX1aCI91bUDbXjyIUF//TxFIIiKsl8fO+BYqL+XIDyqUWkIfiIUZf776BZNSXKgd5KB6z726gVGsrP5i7C/CozqYNwM8m9caDa3Cyz6aGw26CcyGhH+5awQJN6o7mXzwp7sED9eLu7u5Wd3f73b5KZt5z9uxu7sstMkdem5lDS7zVXq2TA/tcj20uHk9LUrf4EUZb59KK5EWbn0Wgpg+bmkIrMoYhfJ66kxZ4sxqvghNqV64aTwu2bUe4rNpBc77665rCKT127vLQXNfdCI+Rt/lorN3DneCkpnvm0tzeVQiL0ik0FTdrgB8Oa1YylqbcXQYiDPZVp6n999WC8/L63emmoZT5CL2ai2gobkN/BMfrXVrS0JADCLX8wTSUdjAfwVKhYysamvgsQuzFOBrxVT2EYOp/OJlmWuQhpA6l0UjCK00RXLmvJtJI9hGEUvkdNFJk80AEW9LRPjSypD9CaI+XJvZ3diEEmiyikb75CJkBQ2ji2DSExvETbhpIuQWhUnsoTZw8hVCJPO2hgVZnECKNM6lzD30doZN+1ksDHXIQEmeWUOeeEolQ6nGbl7rEcwiFpC7hi5CgdgsvdXekIwTOL6BuxwyEWo+zPqq8pRF8K5ZRd6EcQi/9tJuq+hcRdDvjqOp6CeEQeYK6Ugi2GWupKnoA4XEqi6p5NyHINrmpaXAU4TKnD1Ut/Aiq1duoybzsR9gsb09Nu2kIpryZVF2phfBJuuqlppEfQdS5JTW7OiGccmdR0+4agmf6HdQU2Yfwalafmi4uBM3mZCq8VVwIs2GxVGzbjWC5WJ+aEuURbhVaUHMVQeK/Ts2QAQi/ml2pKPYsgmNOESo8l1EYHE2lzHMDQRHxNjUX2qIwGNiXipO1EAzDEqho3xmFwztplLXcjiAYcYyamRVQSCx1U/YKguCyj4ohY1BYPDuJsqdfh+Mu9aHmXhQeB5Mp8u6E0yq8S817x1F4pD9I2e0V4LCbE63Px8KqeyZF856Cs3Lfp+au4wg/89vI1xjOOphZCN9Esg+8FB2uACd1eoia6JtQuIz4kKJtZ+AgVymqSiYhEP6IVZ3631RpdZ0XInMrwBEfUeRpDgcNqE5N7DjY5V81oHup1g2rpbWLSWzw0sKorB0d2gy6mI9A7Z5H0ccuOGZka6o+qQ1bRs5u/GmxRB//yB23beqT41a5EIikwRQ91BSO6ZdKjXsdbPCf+ezEWB8LkPBhrxq1EIDPUyjJPg+nrJpI1banYNnArV8U9VDUsup9FWHbxiyK9sApj3uoOp0Di/J6ftmAuuRJ6+wH6UmKZuXAGf3fo8rbHNa4Vg9OpBnv2q9WwJ6t7Sl5egYckdSCurnlYEnbj4bQXNyyJi7YkVs8JC+j+zOoa50EC1znF3toSfUq5WHH1xRtgRNql6DOfRAWRKxpR6u8y+rAhnEJlJSEE26Jp27sTTAXWTKeNiz5xgXLRrSipPgKBO7brjTQcAWM7Z7qpi0vfVYBVvk3UDLkBQTuH24a+A7GDq2lXanfj4RVn1GScD8CVmkIDXiGwdSAYrQvrlQ+LCrbnpLGCNTADTQxdjYMTSvGQMS/lQdrmlaj5DoCtTKWJrLKw0z/LAYm5XE/LEk6HNz5dfpiGvnUDyMjfmCgEn+ENa9Ssms6ArPOSyMfwUh+IzcDVrQJLKnrpWDuCwjI8adpxFsZRjbH0QENZ8CKaw0oyJiDQPjfpJnEaTBRdh4d0aUCLJgRRUFKZQTiwEs0M/d1GJh+gs5oWQYWRIymwLMOAaj1Ew0dqw0Da7x0yKIZMOc6TcnDCMCRFBoamgPd7rvoFPdVWLCekpmwLzKLpt6Fzn8bnbPtJphbQ0kJpxJ0ZE9C93MROugVP4wd8VEwEbbdlEZjbaDyv0snRa+GsdfiKSgGuyqUpDH3LVC9E01HXYexOdkU9IFd59rTmLcfVM/TWVHlYGp1BgXVYVP5qTSXeQ6ayIfoLN9nMPVUOwoyYNOLyTSXcj80dTPpsF8iYOjiEApawp5yrWhBwnYo/FdowNtuUb0v3666P9tNXcw0GOpUlIIU2OL6lc6G6PUoqhKHvtEsN8fvHxlZ4/liHqoecCZE8bClSTuHQ7QynorMHfcPxP+ZMbwoNSXyYOaxIIQo/x46HKJ7qch4rgf+oNJUN2VpF2Gm5jYKUmHH0QRaEnczZPlTKRt7xI8/ibzdTVH85zBzJpqC9rCh4t20xjsZsk59KIq9z84m7kcwU2csBQtgwx4frfEdgex8KiXuXjn4Gze9R9FpP4xMS6RgIaxrNpdWfQbZG25Kur6Ov1XaS8mxHjCyPYGCKFiW8wUtWwrZPyjxlcbfW7WIkj6PwcioZAomwbLfGtCyLpB9TElUJxTgOUoyVsPIDUoWw6oeJ2jdl35IcpZR0tePAlyL0dc9uqWUHIZVNzJp3YUISPIX23yTTV+rbzDoJlAyARY91ps2LKkISY9dNmdVSbMocHeHiQr1KHC/Couepx1j60BS/k4K2h9Cgd6l5D7otN+efAPWHIqmHXGvBfBHNqiEAnVwIERnFlKQ2hmWjOxGe7ZAkptFQfZWFMS1gZJHYKJnAgVFKsGS8dm0ZwIktSZS4DmKguR/QoHvR5iYT8nT38KKtg1p0+IICPJ+sNnarGZRCjK/gYkWlFxYASvWeGhTWjkIXN0oaVgbBeiYqT2huogLlGxwwYKnnqBdcYMg6UVJy30FDddyaIvshoEz8yjZBAuSXqF9SyFZR1G3gfhbWxeoszHdykwKPMthwfYY2lcvD4LPMymJLYO/U/sniqaODLzCIfEQzK2oxwD0qQlBsyIU9e6Pv/LvyaSoAwxE3EHJ/kiY+yqOAcgsA0H5LMrefx1/5uqeQdl8GKjTjpITeTD27J0MSBdISlLmPtkMfzTwswWUtS8LAzd8lDwDc6+6GZBJbSG44aai/pEI/JPj7yZQ8WFb6JJa06m39Zh5VHhTKEn9DYKbxlKTUK/M/9ZT59X5PspNzbswcLGPQ1UHyLtCzYMvB5DNEnGSurjeZ7eM/21Q86s7qvuoSq4LA7d4KDmWC1PftKQidVRHLyW9K0LwOI24k+PifTSy/3Xo8g7Tof209E/0vde8p6Ipie8HwaVoOmwCDNwkj2eenTBV2ktFu58RUVWpA5HSZnO60Vmx+2DgVqXgtpmD32N4xqUd9TB6NgQrE+ioX2pBt1H5xkzVCJjx96KmWjkAvyXQ/oqwR1U6KbM5DHRUElJehaF/UUfk5PkAUFGptntoBgRH4umgB9OhG6ks8mJrwEyE3h56ann8p0YUeQ5CkDuVzokzuom2K+0k1qbDzPIUKtr/T7pnP2VdOTFdL5B0xt7a0OVok731MDNil97eqgL+y7dPKy+I7hAMvEKnZBgNZ00W0HBBoLjVR0XaO/hvLi0Dv+F0CC69R4dMyIEuZ7BWj5QOI7OLUuH+Hv9rZZxyGz0CSeN4OuKuZjBQI8awckVR4Xdq1v7/QLVK69uaNUIcGPrSCZ7hMJCvNZ7O+BlGBiWqg8dOmJ9n++S2UhcX0QHFmzrS2+xEPkzk/kLN0Fr4fwNiAnsGajhQHZtaGQbaPqjdix/ASONkKhbUwD8ZuYyKsxUgOdKAgWo9EgYe9Wi9nB+DiZp6d4ouSfhnR7SYtpwMiX9LNgNTfQAMPBVFRyZFrnupeeIU/qDiJCrungFJzuPZDMi/d3cXbnFdWxTA98SVMEi9ZSB+90A18spA27jnxd3dJ+4OnfhACXF3d3nE3T3E3d3d81xiewfWN9933+9PCCdnzz13nXW/sJDMlooF0Q1I40k2FtgX0Rsys8DoaKMPcbcqzIlQrxwpVPViQdGxpDD1llysUILesK8GC0KFNIL7Yh9OMOdFTLdZ+EHSKBvOgsh3vB27z5K0woVDy/TNnFAPq2C6zR7mIIV8n7Kk0juGR0Q2lgyVTqrOPrVzgoT2JYV74obpvZM0uttZkP5dL7xd/VliLUaCEvUTNvx/c2O6zdJEUSLKF8ThMbgUS/wakcA9+9MELKSR+THdZt5TSMHdXzU8EraMuF4ukuTL7G+wnuLxRt9tFhNFCpuaJnh4RIxj0dOkJLGsf5ne4I9RKIgUBmUQx9lXqrG4kSUXohJxc9aoGUUiW7Kl5+2s5pObFOIOs+SPJKTQwsoC3+T0PrvbsshxfyrJLD8tzxJqsE7qqaTwysECr9WkMOcSy8+jieu/tp4YSxo5nqTcm97BslKqsMzuzSzpbyOFdgYL/I+KLeoCn2OBpDO1faaHLPreQjLXS9CZ5Ulxww1LmfgMe3jnQGCo4JOf1N9oB5xZNpzBknU9KPFvM8IvNyQdeQNx5iGFHM1AZ5a9xLEYLN0dOBrCCsFfTCPQBvI0CvON9vCypBDXWx6LOUjwpZMVSlclzAbimxz0jfZboLEYvZIkVZqxwsYqpHAoWk7tuTHfaM/2hBT2yav6votEg39BvTVVbCA1jqq/0Q4YizZ5VXeIVzUeGJi3plTAW5yvx0DfaEeNRccSULtqyHpSGNKSJd8GkcKNwixwbgWt6sNx2F8gggcGC3x2Ar7RjhyLGQaB2lU/zaf9Bq7gu6mAb7Qjx+JfGmI2kPCyoHLEUnlJoevPusdOwKoed1K3gYB+gZQvrYqiilynQGPxrDwW2ynbVTEP5gExuigqILAZlhk0Fi/NAbWrfm/BlCNmHw0KbO7qoVrV4li0ttBvIIC//ZEiLNkbgAls+jQnhdgsLNlTBdOumj0PqBzRdzYosHkmCSlcF1d16HP9BgL42+f1Y8mLQExg02+EalXLY/GmG7OB+M4GlSP6D8cENnmpi2SWpaBXeUeKgP72O33kKQQKbBY5QgojxFUd1hm0gfgPB5UjruuBCWxmv64ai2dAT4tyu2rYZdLoHIaZQgF7WZIllhSa+8hPi6ANZHxSUsgllyNuV02h0dmVNzQEPXaBxmJuHxYE7yAF92+MmULfZNXe0BAcA43FoELag29B31DQFOrIkl+SkcLRGnLhv0vfrioffEuqPARNoa/lrXESKbjPseTnrqB21fsuTDli9m6kMDU1aGtMLo5Fx3JQu2qHeFA5YkysJ7fGqAugsSi3qzpWkILlDmOmEGxrvCiuaq++oHbVCcV15YigKdQZtDWWq8eCsDsuUvjByYIM00HliPIUQm6Nli9YsjEOtIHUbEgKX0XKP9BBv60mxpNCA3FVV88PaldtklF3EQo0hfqCtsae+1kQsoU0Bo9jgfFn0l2EkpMpoN9WV4tDrvfVaEQaDa+xZOA9zEUoHpYE89uq8F1SWCCt6iKrUe2q1hQEuQjFfUBTiI+PBazqsDRnYe2qn+UElSNWc2F+W42KIIXhbT88pCv0IJ1idhZ4VQWVI07sqv9tBaj7/u6DS2hxprGks68tSwraSOG2VX4WwkwhTtuJNJ6tMvg9jJBJQ0jJVoEl52uDyhHTxEKmEHtXJhVX/jsdHPwO2es9iLeQ1o9yVKYNqByxcHkSKKPfk6eRkuXe7e/83xiP1pBKU3qQ3rTJLBmwAFOOyEPHkkIbu+b6vF7gN/26PK64qmmkj0+k1y9pt5+429pNH6OyHJWpBSpHXKWasLXPq6/P67ljv1m4cvXq38/+FGCjj9RpMahg4G5hZYmLwFaGJZv3ERIgrNsAdI+hpWqClPRigb0YIQHCuvUtmHLE4AKkkHMNS3rHkQeNbawI64LKER/nIIW5VhZk6EWeVF4R1gWVI0ZvIYU5FVkyoyHhyWFd8Y6oYGUflsxzkcJ8gwVNThIcIKwLyNp1iMfcpjPmkycdQYV1HwXLR4Sg23QV55AHuZaCwrpJ14GOCOXbdNa5hARIJWUGlSMWvgu6TbcmJ4HJqSRATGq4P+iIsJiDBU1LEhAglRQ8BZS1G7XQo+dWKEG7QDEpOWtnzAKdW6WrTUCAVFKf30khSs7aLe6EP7cCAGTtqrkw5Yjea0HnVnUXEJaQSgKdxP8kZ+2aTdOfW8ndZhCg98FfgsoRow+BDr739yQPikK9D5bLEfmlS3luJXebedJFwPtgZTni5t2ksHAUS+5YCAT5PhhQjuh4BTr4rt6aUJDvgwHliIfjMAffztOEgn4fLJcjAu50F78KuE0HgH8fvD4EFG1b4cDcpoORs3bW26ByxFERoIPvm24CAmTt/jQNU45onCAF131QAxhMKzum1y7nRlC0bWW0vhgTApC1S2XDlCN63yaFHH/IxZj5CAiQtUvXXl+OCPj/ukO+ZF6W8ISsnVynLmvHkjGrSSHpeH0xJgQga1e3BOZ1Ds+0kcJlUP8GzG3QkYPidU7bffj+DQz5yEGuU5f1isTkNwKvyP0bP5EnzQIdOShe5/Qu4cn+DZgI1JHDKwcmvxEQA2gAA8AfOezeDMhvKPs3GhEK+shBLkcE5DeOFAGFClCKXwV9i+PQGMy9I8szUKgA5ksH5lsc05qxpOI9TIGPHCqA6joR9C2Otd6Y/MbUM/oGMAhA1m5kLn05IuDe0U4fffcKBKDXrjOo8tOrqr7ARw4VwACydt8GgcoRU9nwVScAgF67nbpyRNBhSq4aLFlqITRArx2g8tO+CFV1coQ8KTNoVcdmUX2bTpY8FNMABnNUsapdmHJE+TAFWnWCEngAtKqPFAEdpmx1sqB0efKk5MpeO0A54rjBoFDB52MJCPAh4gsBgBiyug3ZUh/UvQIjr+pShwAxZH0bcoNsLDAmERDgQ8TOOoAYsr4NuWdR7fU+ANCqbjwNFEPemJMUMoVjGsBg5FX9dAgohtx0EyiVJF/vQ5JXde/dqBhyGRsp1LFjrvfBiKv66j5UDPn8elAq6b6LUADVCfbvWqNiyPY2oFSSfL0PR65OKH0nFhZDHrAAk0qSr/dB5T/PH2BU7OeGxZAja4FSSXI5ItR164dKCr6fA4wh7++JSSUVnk4eFbVjQjC/k5Htt4wuYAw5fQNSaH0JlPhGqnJ3xio7v8ln8azhNlJrkB70prsdKEEK5o6//fnA6OwG/0OYzy9ZujwvDo4hVy8HKkc8QXgaltjhg5Z8cbPmjKEVHsyt+s1UeAzZeVpfjiglvs1oQV1QuL5fJKoBDA8WQ5YfzuRyRCFBakbt04HC9Ys0DWBmZEsFCte3b6tJkJpRVS/Mxy1tMzUJUjOa9hno45arNQ1gppTCyoLwTKDEd+84MqN7A0GNfXK7amQ/MqUToMa+e2k1CVIzihgFauw7oflkqxmNrcmSeuUw/9RGOzKl6RlY4Lyo/aeWG8DMqPgEUGPfdE0DmCmtAMWQi0/QNICZUXwHUAx5haYBzIxc90Ex5N0dNC8pzWhlNObhzDWPJW3bk6nobz7HxJHClmgWWEeTKcmVn01GkEKOxyy5loPMSL757JOHNAp4s6BlVzKly1JUxlF/LCkMacmCGlvIjOTKT/u5nKQxyZAegweRGcmVn44DsaRx9hfp6TUTmdPs0kLS7lkVglwZ2dyIzEj+vHa26w2JAFdGwq5GkAnJn9e29z5kIQJcGfE9FUQmFbSYP6DJg3ykVNn5oe2sd3k3mVXPHXWt/G5Gqf7JLKQV/3Kcwe/mSNstjswsdmezMQa/xVmkY4SNSM91tF09K7/FKB1zOojMrmFEnY2/BBv8b/bQSwfKJrXQxwrqd3NgqJ3/zXCmv3piRA76v9Czfdku21vW6FO6afqJV1+8+jHIRQliyXdoyYsJm/1KFw5tUn1NtcrJppFnvAbACZqsz+d7CwAAAABJRU5ErkJggg==;" parent="1" vertex="1">
          <mxGeometry x="300" y="100" width="60" height="62.07" as="geometry" />
        </mxCell>
        <mxCell id="sVRV8ydl0Pa446DgSfbg-6" value="" style="endArrow=classic;html=1;rounded=0;entryX=-0.047;entryY=0.585;entryDx=0;entryDy=0;entryPerimeter=0;" parent="1" edge="1">
          <mxGeometry width="50" height="50" relative="1" as="geometry">
            <mxPoint x="360" y="130.53" as="sourcePoint" />
            <mxPoint x="446.99199999999996" y="130.62500000000003" as="targetPoint" />
          </mxGeometry>
        </mxCell>
        <mxCell id="sVRV8ydl0Pa446DgSfbg-7" value="" style="endArrow=classic;html=1;rounded=0;entryX=1;entryY=0.5;entryDx=0;entryDy=0;" parent="1" source="sVRV8ydl0Pa446DgSfbg-5" target="sVRV8ydl0Pa446DgSfbg-1" edge="1">
          <mxGeometry width="50" height="50" relative="1" as="geometry">
            <mxPoint x="390" y="260" as="sourcePoint" />
            <mxPoint x="440" y="210" as="targetPoint" />
          </mxGeometry>
        </mxCell>
        <mxCell id="sVRV8ydl0Pa446DgSfbg-8" value="" style="endArrow=classic;html=1;rounded=0;exitX=0;exitY=0.5;exitDx=0;exitDy=0;" parent="1" source="sVRV8ydl0Pa446DgSfbg-4" target="sVRV8ydl0Pa446DgSfbg-2" edge="1">
          <mxGeometry width="50" height="50" relative="1" as="geometry">
            <mxPoint x="390" y="260" as="sourcePoint" />
            <mxPoint x="440" y="210" as="targetPoint" />
          </mxGeometry>
        </mxCell>
        <mxCell id="ZeHyfcU8Hrkil8Ng6tK_-2" value="" style="edgeStyle=orthogonalEdgeStyle;rounded=0;orthogonalLoop=1;jettySize=auto;html=1;" edge="1" parent="1" source="ZeHyfcU8Hrkil8Ng6tK_-1" target="sVRV8ydl0Pa446DgSfbg-1">
          <mxGeometry relative="1" as="geometry" />
        </mxCell>
        <mxCell id="ZeHyfcU8Hrkil8Ng6tK_-4" value="" style="edgeStyle=orthogonalEdgeStyle;rounded=0;orthogonalLoop=1;jettySize=auto;html=1;" edge="1" parent="1" source="ZeHyfcU8Hrkil8Ng6tK_-1" target="ZeHyfcU8Hrkil8Ng6tK_-3">
          <mxGeometry relative="1" as="geometry" />
        </mxCell>
        <mxCell id="ZeHyfcU8Hrkil8Ng6tK_-1" value="Saas Web App" style="sketch=0;pointerEvents=1;shadow=0;dashed=0;html=1;strokeColor=none;fillColor=#505050;labelPosition=center;verticalLabelPosition=bottom;verticalAlign=top;outlineConnect=0;align=center;shape=mxgraph.office.concepts.website;" vertex="1" parent="1">
          <mxGeometry x="105.5" y="283.81" width="59" height="49" as="geometry" />
        </mxCell>
        <mxCell id="ZeHyfcU8Hrkil8Ng6tK_-5" style="edgeStyle=orthogonalEdgeStyle;rounded=0;orthogonalLoop=1;jettySize=auto;html=1;" edge="1" parent="1" source="ZeHyfcU8Hrkil8Ng6tK_-3" target="sVRV8ydl0Pa446DgSfbg-2">
          <mxGeometry relative="1" as="geometry" />
        </mxCell>
        <mxCell id="ZeHyfcU8Hrkil8Ng6tK_-3" value="Event Pipe&#xa;Jitsu" style="shape=image;verticalLabelPosition=bottom;labelBackgroundColor=default;verticalAlign=top;aspect=fixed;imageAspect=0;image=data:image/png,iVBORw0KGgoAAAANSUhEUgAAAQAAAAEACAMAAABrrFhUAAAABGdBTUEAALGPC/xhBQAAAAFzUkdCAK7OHOkAAAAYUExURUxpcaoA/6sA/60A/6sA/6sA/6oA/6oA/+mkjr8AAAAHdFJOUwDZQhuTf7hXNiQmAAACh0lEQVR42u3ZiXHAIAwFUQ4D/XecSQWxQXL8pd0GEG8Gn6UQERERERERERERERERUalLoSs7gKOACICfgAqAm4AMgJeADsCa2QF8BJQAXE6BFICHgBaAg4AYgL2AGoC5gByAtYAegLGAIICtgCKAqYAkgOUzoSaAoYAogJ2AKoCZgCyAlYAugJGAMICNgDKAiYA0gIWANoCBgDjAuYA6wLGAPMCpgD7AoUAAgDOBCABHAiEATgRiABwIBAHYF4gCsP2dMAxABQAAAAAAAAAAAAAAAAAAAAAAAAAAAAAAAAAAAAAAAAAAAAAAAAAAAAAAAAAAAAAAAAAAAIBvAVzjbjMmQLs96gUAAAAAAAAAAAAAAAAAAAAAAAAAAAAAAAAAAAAAAAAAAAAAAAAAAAAAAAAAAAAAAAAAAAAAAAAAAAAAAPB/AL14BEB2gAlAcoCaHWAlB+jZAVp2gJEdYGYHWMkBWnaAkR2gJgf46wSEB7iSA/SVHGBkB1jJAUZygL6SA1zJAdpKDlCTA1wrN0BbuQF6TQ5wd8CoAHPlBri9/6AA9/cfEqA/GS4gwKP9BwRoz9YMBzBXaoD2eK5QAG1jqvrOSXsDoM2dNes711p/gL3tHwB4CGwD9LE9TC0fEtgDaGMerFnLhwQeAfTeWhvXPFzzBMDlOvB2RwC3vjuHBvC5GyoB6AvUklygluQC5wDiAgYA2gIWANICJgDKAjYAW2/ioQB0n4qtAGQFzABUBewARAUMATQFLAEkBUwBFAVsAQQFjAH0BKwB5ATMAdQE7AHEBBwAtAQ8AKQEXACUBHwAhAScAHQEvABkBNwAVP4b+gGU39/XAhUiIiIiIiIiIiIiIiKi5P0Af/Sb5YLgdocAAAAASUVORK5CYII=;" vertex="1" parent="1">
          <mxGeometry x="300" y="277.65" width="61.31" height="61.31" as="geometry" />
        </mxCell>
      </root>
    </mxGraphModel>
  </diagram>
</mxfile>
